<svg width="111" height="100" viewBox="0 0 111 100" fill="none" xmlns="http://www.w3.org/2000/svg">
<path opacity="0.9" d="M111 52.9003C111 38.19 99.1065 26.2134 84.4721 26.2134C82.0722 26.2134 79.7076 26.5685 77.4489 27.1957L63.3909 0H47.7329L16.817 67.1845C12.5937 63.8709 9.17038 58.6992 9.17038 52.9121C9.17038 44.983 14.2289 38.2136 21.3226 35.7876L25.4989 26.2608C11.6997 27.1129 0.61792 38.7344 0.61792 52.8884C0.61792 62.1904 6.0882 70.4153 13.2878 75.1847L2.74721 99.2205H11.3938L20.3933 78.6995C22.5461 79.2676 24.8166 79.5753 27.1459 79.5753C33.6631 79.5753 39.9334 77.1729 44.8037 72.8059L45.0272 72.6047L73.355 39.1367L87.2131 70.7585C86.319 70.9006 85.4132 70.9716 84.4838 70.9716C76.6607 70.9716 69.8493 65.9656 67.4377 58.6282L61.2969 65.8827C65.8731 74.2024 74.6255 79.5871 84.4838 79.5871C86.6484 79.5871 88.7424 79.3386 90.7541 78.8415L99.683 99.2324H109.035L98.6242 75.4687C106.059 70.7349 111 62.3797 111 52.8884M68.9317 31.2668L68.52 31.5745L38.8981 66.5691C35.6395 69.4094 31.475 70.9716 27.1459 70.9716C26.04 70.9716 24.9695 70.9006 23.9225 70.7112L52.5915 8.60369H58.5206L69.6729 30.7934C69.4258 30.9591 69.1788 31.1011 68.9317 31.2786M95.1068 67.4567L80.9546 35.1722C82.1075 34.9473 83.2721 34.829 84.4721 34.829C94.3774 34.829 102.436 42.9356 102.436 52.9003C102.436 58.8649 99.5418 64.1667 95.1068 67.4567Z" fill="#A9CCCD"/>
</svg>
