<svg width="212" height="35" viewBox="0 0 212 35" fill="none" xmlns="http://www.w3.org/2000/svg">
<path d="M44.8945 25.5H42.0938L48.375 8.03906H51.4219L57.6914 25.5H54.9023L49.957 11.2148H49.8164L44.8945 25.5ZM45.3633 18.668H54.4219V20.8711H45.3633V18.668ZM64.3458 25.7695C63.088 25.7695 62.0021 25.4805 61.088 24.9023C60.1739 24.3242 59.4708 23.5273 58.9786 22.5117C58.4864 21.4961 58.2404 20.332 58.2404 19.0195C58.2404 17.6836 58.4904 16.5078 58.9904 15.4922C59.4982 14.4688 60.2052 13.6719 61.1114 13.1016C62.0255 12.5234 63.0958 12.2344 64.3224 12.2344C65.3224 12.2344 66.2091 12.418 66.9825 12.7852C67.7638 13.1445 68.3927 13.6562 68.8693 14.3203C69.3536 14.9844 69.6388 15.7578 69.7247 16.6406H67.2404C67.1544 16.2266 66.9864 15.8477 66.7364 15.5039C66.4943 15.1602 66.1739 14.8867 65.7755 14.6836C65.3771 14.4805 64.9044 14.3789 64.3575 14.3789C63.6466 14.3789 63.0255 14.5664 62.4943 14.9414C61.9708 15.3086 61.5607 15.8359 61.2638 16.5234C60.9669 17.2109 60.8185 18.0234 60.8185 18.9609C60.8185 19.9062 60.963 20.7305 61.2521 21.4336C61.5411 22.1367 61.9513 22.6797 62.4825 23.0625C63.0216 23.4375 63.6466 23.625 64.3575 23.625C65.0919 23.625 65.7169 23.4219 66.2325 23.0156C66.756 22.6094 67.0919 22.0547 67.2404 21.3516H69.7247C69.6388 22.2031 69.3654 22.9609 68.9044 23.625C68.4435 24.2891 67.8263 24.8125 67.0529 25.1953C66.2794 25.5781 65.3771 25.7695 64.3458 25.7695ZM74.1291 17.7305V25.5H71.5979V8.03906H74.094V14.5547H74.2698C74.5745 13.8438 75.0393 13.2812 75.6643 12.8672C76.2971 12.4453 77.1213 12.2344 78.137 12.2344C79.0354 12.2344 79.8205 12.418 80.4924 12.7852C81.1643 13.1523 81.6877 13.7031 82.0627 14.4375C82.4455 15.1719 82.637 16.0859 82.637 17.1797V25.5H80.0823V17.4844C80.0823 16.5156 79.8323 15.7656 79.3323 15.2344C78.8401 14.7031 78.1526 14.4375 77.2698 14.4375C76.6604 14.4375 76.1213 14.5703 75.6526 14.8359C75.1838 15.0938 74.8127 15.4648 74.5393 15.9492C74.2659 16.4336 74.1291 17.0273 74.1291 17.7305ZM85.1429 25.5V12.3984H87.6742V25.5H85.1429ZM86.4203 10.3828C85.975 10.3828 85.5961 10.2344 85.2836 9.9375C84.9711 9.64062 84.8148 9.28516 84.8148 8.87109C84.8148 8.44922 84.9711 8.08984 85.2836 7.79297C85.5961 7.49609 85.975 7.34766 86.4203 7.34766C86.8578 7.34766 87.2328 7.49609 87.5453 7.79297C87.8656 8.08984 88.0257 8.44922 88.0257 8.87109C88.0257 9.28516 87.8656 9.64062 87.5453 9.9375C87.2328 10.2344 86.8578 10.3828 86.4203 10.3828ZM95.8169 25.7695C94.5356 25.7695 93.4263 25.4922 92.4888 24.9375C91.5513 24.3828 90.8286 23.6016 90.3208 22.5938C89.8208 21.5781 89.5708 20.3945 89.5708 19.043C89.5708 17.6992 89.8169 16.5156 90.3091 15.4922C90.8091 14.4688 91.5083 13.6719 92.4067 13.1016C93.313 12.5234 94.3755 12.2344 95.5942 12.2344C96.3364 12.2344 97.0552 12.3555 97.7505 12.5977C98.4458 12.8398 99.0708 13.2227 99.6255 13.7461C100.18 14.2695 100.618 14.9492 100.938 15.7852C101.266 16.6211 101.43 17.6289 101.43 18.8086V19.7227H91.0122V17.8125H100.118L98.9341 18.4453C98.9341 17.6406 98.8091 16.9297 98.5591 16.3125C98.3091 15.6953 97.9341 15.2148 97.4341 14.8711C96.9419 14.5195 96.3286 14.3438 95.5942 14.3438C94.8598 14.3438 94.2309 14.5195 93.7075 14.8711C93.1919 15.2227 92.7973 15.6875 92.5239 16.2656C92.2505 16.8438 92.1138 17.4766 92.1138 18.1641V19.4648C92.1138 20.3633 92.27 21.125 92.5825 21.75C92.895 22.375 93.3286 22.8516 93.8833 23.1797C94.4458 23.5078 95.0981 23.6719 95.8403 23.6719C96.3247 23.6719 96.7622 23.6016 97.1528 23.4609C97.5513 23.3203 97.895 23.1094 98.1841 22.8281C98.4731 22.5469 98.6919 22.1992 98.8403 21.7852L101.254 22.2422C101.059 22.9453 100.715 23.5625 100.223 24.0938C99.7309 24.625 99.1098 25.0391 98.3598 25.3359C97.6177 25.625 96.77 25.7695 95.8169 25.7695ZM114.014 12.3984L109.28 25.5H106.538L101.792 12.3984H104.522L107.85 22.5H107.991L111.296 12.3984H114.014ZM120.68 25.7695C119.399 25.7695 118.29 25.4922 117.352 24.9375C116.415 24.3828 115.692 23.6016 115.184 22.5938C114.684 21.5781 114.434 20.3945 114.434 19.043C114.434 17.6992 114.68 16.5156 115.173 15.4922C115.673 14.4688 116.372 13.6719 117.27 13.1016C118.176 12.5234 119.239 12.2344 120.458 12.2344C121.2 12.2344 121.919 12.3555 122.614 12.5977C123.309 12.8398 123.934 13.2227 124.489 13.7461C125.044 14.2695 125.481 14.9492 125.801 15.7852C126.13 16.6211 126.294 17.6289 126.294 18.8086V19.7227H115.876V17.8125H124.981L123.798 18.4453C123.798 17.6406 123.673 16.9297 123.423 16.3125C123.173 15.6953 122.798 15.2148 122.298 14.8711C121.805 14.5195 121.192 14.3438 120.458 14.3438C119.723 14.3438 119.094 14.5195 118.571 14.8711C118.055 15.2227 117.661 15.6875 117.387 16.2656C117.114 16.8438 116.977 17.4766 116.977 18.1641V19.4648C116.977 20.3633 117.134 21.125 117.446 21.75C117.759 22.375 118.192 22.8516 118.747 23.1797C119.309 23.5078 119.962 23.6719 120.704 23.6719C121.188 23.6719 121.626 23.6016 122.016 23.4609C122.415 23.3203 122.759 23.1094 123.048 22.8281C123.337 22.5469 123.555 22.1992 123.704 21.7852L126.118 22.2422C125.923 22.9453 125.579 23.5625 125.087 24.0938C124.594 24.625 123.973 25.0391 123.223 25.3359C122.481 25.625 121.634 25.7695 120.68 25.7695Z" fill="#484764"/>
<circle cx="17" cy="17.5" r="17" fill="#484764"/>
<path opacity="0.9" d="M27.9096 18.2079C27.9096 15.8049 25.8176 13.8485 23.2435 13.8485C22.8214 13.8485 22.4055 13.9065 22.0082 14.009L19.5355 9.56641H16.7814L11.3435 20.5413C10.6006 20 9.99846 19.1552 9.99846 18.2099C9.99846 16.9146 10.8882 15.8088 12.136 15.4125L12.8705 13.8562C10.4433 13.9954 8.49414 15.8939 8.49414 18.206C8.49414 19.7255 9.45633 21.0691 10.7227 21.8482L8.86867 25.7746H10.3895L11.9725 22.4224C12.3512 22.5152 12.7505 22.5654 13.1602 22.5654C14.3066 22.5654 15.4095 22.173 16.2661 21.4596L16.3054 21.4267L21.2881 15.9596L23.7257 21.1252C23.5684 21.1484 23.4091 21.16 23.2456 21.16C21.8696 21.16 20.6715 20.3422 20.2473 19.1436L19.1672 20.3287C19.9721 21.6877 21.5116 22.5674 23.2456 22.5674C23.6263 22.5674 23.9947 22.5268 24.3485 22.4456L25.919 25.7765H27.5641L25.7328 21.8946C27.0406 21.1213 27.9096 19.7564 27.9096 18.206M20.5101 14.674L20.4377 14.7243L15.2274 20.4408C14.6542 20.9048 13.9217 21.16 13.1602 21.16C12.9657 21.16 12.7774 21.1484 12.5933 21.1174L17.636 10.9719H18.6788L20.6405 14.5967C20.597 14.6237 20.5536 14.6469 20.5101 14.6759M25.1141 20.5858L22.6248 15.312C22.8276 15.2752 23.0325 15.2559 23.2435 15.2559C24.9858 15.2559 26.4032 16.5802 26.4032 18.2079C26.4032 19.1823 25.8942 20.0484 25.1141 20.5858Z" fill="#A9CCCD"/>
</svg>
